<?xml version="1.0" encoding="UTF-8" standalone="no"?>
<!-- Created with Inkscape (http://www.inkscape.org/) -->

<svg
   xmlns:dc="http://purl.org/dc/elements/1.1/"
   xmlns:cc="http://creativecommons.org/ns#"
   xmlns:rdf="http://www.w3.org/1999/02/22-rdf-syntax-ns#"
   xmlns:svg="http://www.w3.org/2000/svg"
   xmlns="http://www.w3.org/2000/svg"
   xmlns:sodipodi="http://sodipodi.sourceforge.net/DTD/sodipodi-0.dtd"
   xmlns:inkscape="http://www.inkscape.org/namespaces/inkscape"
   width="210mm"
   height="297mm"
   viewBox="0 0 210 297"
   version="1.1"
   id="svg9345"
   sodipodi:docname="medieval-icon.svg"
   inkscape:version="0.92.1 r15371">
  <defs
     id="defs9339" />
  <sodipodi:namedview
     id="base"
     pagecolor="#ffffff"
     bordercolor="#666666"
     borderopacity="1.0"
     inkscape:pageopacity="0.0"
     inkscape:pageshadow="2"
     inkscape:zoom="0.35"
     inkscape:cx="678.98458"
     inkscape:cy="1025.6229"
     inkscape:document-units="mm"
     inkscape:current-layer="g9954"
     showgrid="false"
     showguides="true"
     inkscape:guide-bbox="true"
     inkscape:snap-global="false"
     inkscape:window-width="1366"
     inkscape:window-height="705"
     inkscape:window-x="-8"
     inkscape:window-y="-8"
     inkscape:window-maximized="1">
    <sodipodi:guide
       position="21.166666,207.88691"
       orientation="1,0"
       id="guide9894"
       inkscape:locked="false" />
  </sodipodi:namedview>
  <metadata
     id="metadata9342">
    <rdf:RDF>
      <cc:Work
         rdf:about="">
        <dc:format>image/svg+xml</dc:format>
        <dc:type
           rdf:resource="http://purl.org/dc/dcmitype/StillImage" />
      </cc:Work>
    </rdf:RDF>
  </metadata>
  <g
     inkscape:label="Layer 1"
     inkscape:groupmode="layer"
     id="layer1">
    <g
       id="g9954"
       inkscape:export-xdpi="29.9"
       inkscape:export-ydpi="29.9">
      <g
         id="g4496"
         inkscape:export-xdpi="29.9"
         inkscape:export-ydpi="29.9">
        <path
           style="fill:#ffffff;fill-opacity:0;stroke:none;stroke-width:9.47663879;stroke-linecap:round;stroke-linejoin:round;stroke-miterlimit:4;stroke-dasharray:none;stroke-opacity:1"
           d="M 662.01562 462.51953 L 662.01562 359.19141 C 662.01562 356.18342 661.86389 353.21072 661.56836 350.2832 C 661.27283 347.35569 660.83453 344.47333 660.25781 341.64062 C 659.68109 338.80792 658.96662 336.0263 658.12305 333.30273 C 657.27947 330.57917 656.30703 327.91259 655.21094 325.3125 C 654.11484 322.71241 652.89482 320.17906 651.56055 317.7168 C 650.22627 315.25453 648.77687 312.8648 647.21875 310.55469 C 645.66063 308.24458 643.99418 306.01276 642.22656 303.86914 C 640.45894 301.72552 638.58974 299.66982 636.62695 297.70703 C 634.66416 295.74424 632.60846 293.87504 630.46484 292.10742 C 628.32122 290.3398 626.08941 288.67335 623.7793 287.11523 C 621.46918 285.55712 619.07945 284.10771 616.61719 282.77344 C 614.15492 281.43916 611.62157 280.21914 609.02148 279.12305 C 606.4214 278.02695 603.75482 277.05451 601.03125 276.21094 C 598.30768 275.36736 595.52607 274.65289 592.69336 274.07617 C 589.86065 273.49945 586.97634 273.06115 584.04883 272.76562 C 581.12131 272.4701 578.15056 272.31836 575.14258 272.31836 C 572.1346 272.31836 569.16384 272.4701 566.23633 272.76562 C 563.30881 273.06115 560.42451 273.49945 557.5918 274.07617 C 554.75909 274.65289 551.97747 275.36736 549.25391 276.21094 C 546.53034 277.05451 543.86571 278.02695 541.26562 279.12305 C 538.66554 280.21914 536.13024 281.43916 533.66797 282.77344 C 531.2057 284.10771 528.81597 285.55712 526.50586 287.11523 C 524.19575 288.67335 521.96589 290.3398 519.82227 292.10742 C 517.67865 293.87504 515.62099 295.74424 513.6582 297.70703 C 511.69541 299.66982 509.82622 301.72552 508.05859 303.86914 C 506.29097 306.01276 504.62452 308.24458 503.06641 310.55469 C 501.50829 312.8648 500.05888 315.25453 498.72461 317.7168 C 497.39034 320.17906 496.17227 322.71241 495.07617 325.3125 C 493.98008 327.91259 493.00569 330.57917 492.16211 333.30273 C 491.31853 336.0263 490.60602 338.80792 490.0293 341.64062 C 489.45257 344.47333 489.01233 347.35569 488.7168 350.2832 C 488.42127 353.21072 488.26953 356.18342 488.26953 359.19141 L 488.26953 462.51953 L 662.01562 462.51953 z "
           id="path9950"
           transform="scale(0.26458333)" />
        <path
           style="fill:#00158e;fill-opacity:1;stroke:none;stroke-width:9.47663879;stroke-linecap:round;stroke-linejoin:round;stroke-miterlimit:4;stroke-dasharray:none;stroke-opacity:1"
           d="M 566.63477 -515.69336 L 558.89258 -350.99219 C 521.14833 -269.13895 477.47268 -194.30457 414.00977 -107.88672 L 449.40234 -107.77148 L 449.40234 34.40625 L 367.64258 34.40625 L 364.24023 -81.419922 L 310.04688 -81.419922 L 300.0918 -53.005859 L 258.06445 -53.005859 L 249.21484 -81.419922 L 200.55273 -81.419922 L 192.81055 -53.005859 L 146.35938 -53.005859 L 140.82812 -81.419922 L 80 -81.419922 L 80 70.125 L 80 462.51953 L 488.26953 462.51953 L 488.26953 359.19141 C 488.26953 356.18342 488.42127 353.21072 488.7168 350.2832 C 489.01233 347.35569 489.45257 344.47333 490.0293 341.64062 C 490.60602 338.80792 491.31853 336.0263 492.16211 333.30273 C 493.00569 330.57917 493.98008 327.91259 495.07617 325.3125 C 496.17227 322.71241 497.39034 320.17906 498.72461 317.7168 C 500.05888 315.25453 501.50829 312.8648 503.06641 310.55469 C 504.62452 308.24458 506.29097 306.01276 508.05859 303.86914 C 509.82622 301.72552 511.69541 299.66982 513.6582 297.70703 C 515.62099 295.74424 517.67865 293.87504 519.82227 292.10742 C 521.96589 290.3398 524.19575 288.67335 526.50586 287.11523 C 528.81597 285.55712 531.2057 284.10771 533.66797 282.77344 C 536.13024 281.43916 538.66554 280.21914 541.26562 279.12305 C 543.86571 278.02695 546.53034 277.05451 549.25391 276.21094 C 551.97747 275.36736 554.75909 274.65289 557.5918 274.07617 C 560.42451 273.49945 563.30881 273.06115 566.23633 272.76562 C 569.16384 272.4701 572.1346 272.31836 575.14258 272.31836 C 578.15056 272.31836 581.12131 272.4701 584.04883 272.76562 C 586.97634 273.06115 589.86065 273.49945 592.69336 274.07617 C 595.52607 274.65289 598.30768 275.36736 601.03125 276.21094 C 603.75482 277.05451 606.4214 278.02695 609.02148 279.12305 C 611.62157 280.21914 614.15492 281.43916 616.61719 282.77344 C 619.07945 284.10771 621.46918 285.55712 623.7793 287.11523 C 626.08941 288.67335 628.32122 290.3398 630.46484 292.10742 C 632.60846 293.87504 634.66416 295.74424 636.62695 297.70703 C 638.58974 299.66982 640.45894 301.72552 642.22656 303.86914 C 643.99418 306.01276 645.66063 308.24458 647.21875 310.55469 C 648.77687 312.8648 650.22627 315.25453 651.56055 317.7168 C 652.89482 320.17906 654.11484 322.71241 655.21094 325.3125 C 656.30703 327.91259 657.27947 330.57917 658.12305 333.30273 C 658.96662 336.0263 659.68109 338.80792 660.25781 341.64062 C 660.83453 344.47333 661.27283 347.35569 661.56836 350.2832 C 661.86389 353.21072 662.01562 356.18342 662.01562 359.19141 L 662.01562 462.51953 L 1040 462.51953 L 1040 34.40625 L 1038.5996 34.40625 L 1035.5762 -68.460938 L 981.38281 -68.460938 L 971.42969 -40.046875 L 929.40234 -40.046875 L 920.55273 -68.460938 L 871.88867 -68.460938 L 864.14648 -40.046875 L 817.69531 -40.046875 L 812.16602 -68.460938 L 751.33789 -68.460938 L 751.33789 34.40625 L 697.14453 34.40625 L 697.14453 -106.96289 L 736.95703 -106.83203 C 676.32589 -191.3756 616.97268 -271.71099 587.65039 -352.04492 L 572.16602 -515.69336 L 566.63477 -515.69336 z M 572.7207 -515.69336 L 577.69531 -461.49609 C 590.04556 -463.76082 602.30661 -467.17073 614.74609 -469.38867 C 640.38134 -473.95941 642.37525 -466.90616 655.11328 -466.23242 C 687.34048 -464.52789 731.77381 -478.99681 736.4043 -480.43945 L 678.69727 -490.48242 L 733.64062 -507.27734 C 723.16884 -505.99117 687.36384 -507.1617 655.66797 -513.58984 C 637.55179 -517.26396 607.49115 -504.18773 598.15625 -507.27734 L 572.7207 -515.69336 z "
           id="rect9890"
           transform="scale(0.26458333)" />
      </g>
    </g>
  </g>
</svg>
