<?xml version="1.0" encoding="UTF-8" standalone="no"?>
<!-- Created with Inkscape (http://www.inkscape.org/) -->

<svg
   xmlns:dc="http://purl.org/dc/elements/1.1/"
   xmlns:cc="http://creativecommons.org/ns#"
   xmlns:rdf="http://www.w3.org/1999/02/22-rdf-syntax-ns#"
   xmlns:svg="http://www.w3.org/2000/svg"
   xmlns="http://www.w3.org/2000/svg"
   xmlns:sodipodi="http://sodipodi.sourceforge.net/DTD/sodipodi-0.dtd"
   xmlns:inkscape="http://www.inkscape.org/namespaces/inkscape"
   width="210mm"
   height="297mm"
   viewBox="0 0 210 297"
   version="1.1"
   id="svg8"
   inkscape:version="0.92.1 r15371"
   sodipodi:docname="ActionCardMockup.svg">
  <defs
     id="defs2" />
  <sodipodi:namedview
     id="base"
     pagecolor="#ffffff"
     bordercolor="#666666"
     borderopacity="1.0"
     inkscape:pageopacity="0.0"
     inkscape:pageshadow="2"
     inkscape:zoom="0.49497475"
     inkscape:cx="-725.12565"
     inkscape:cy="220.83074"
     inkscape:document-units="mm"
     inkscape:current-layer="g5733"
     showgrid="false"
     inkscape:object-paths="true"
     showguides="true"
     inkscape:guide-bbox="true"
     inkscape:window-width="1366"
     inkscape:window-height="705"
     inkscape:window-x="-8"
     inkscape:window-y="-8"
     inkscape:window-maximized="1"
     inkscape:snap-global="true" />
  <metadata
     id="metadata5">
    <rdf:RDF>
      <cc:Work
         rdf:about="">
        <dc:format>image/svg+xml</dc:format>
        <dc:type
           rdf:resource="http://purl.org/dc/dcmitype/StillImage" />
        <dc:title></dc:title>
      </cc:Work>
    </rdf:RDF>
  </metadata>
  <g
     inkscape:label="Layer 1"
     inkscape:groupmode="layer"
     id="layer1">
    <path
       id="path5743"
       style="fill:none;stroke:#570581;stroke-width:0.26458332px;stroke-linecap:butt;stroke-linejoin:miter;stroke-opacity:1"
       d="m -148.92261,201.37202 131.535708,1.13393 M -127.75594,91.380951 h 89.202372 c 11.726333,0 21.166666,9.440329 21.166666,21.166669 v 98.27381 c 0,11.72634 -9.440333,21.16667 -21.166666,21.16667 h -89.202372 c -11.72633,0 -21.16667,-9.44033 -21.16667,-21.16667 v -98.27381 c 0,-11.72634 9.44034,-21.166669 21.16667,-21.166669 z" />
    <path
       style="fill:#52057a;fill-opacity:1;stroke:#570581;stroke-width:1.28571427;stroke-linecap:round;stroke-linejoin:round;stroke-miterlimit:4;stroke-dasharray:none;stroke-opacity:1"
       d="m -133.24821,230.42839 c -6.82254,-1.96047 -12.58259,-7.82765 -14.35131,-14.61821 -0.40507,-1.55516 -0.57875,-4.0698 -0.57875,-8.37919 v -6.15719 h 3.66927 c 5.51707,0 81.562352,0.70581 105.892602,0.98283 0,0 14.182912,0.24786 20.441118,0.59487 2.027013,0.1124 0.693278,5.74408 0.693278,5.74408 -0.07813,5.0028 -0.316199,6.49908 -0.983807,8.33859 -1.833979,5.05329 -5.518875,9.41763 -9.891545,11.7154 -5.00479,2.62994 -1.82297,2.48724 -54.79393,2.45742 -44.100016,-0.0248 -48.005886,-0.0777 -50.096926,-0.6786 z"
       id="path5757"
       inkscape:connector-curvature="0"
       sodipodi:nodetypes="csscsssssssc" />
    <path
       style="fill:#6b069e;fill-opacity:1;stroke:#6b069e;stroke-width:1.39999998;stroke-linecap:round;stroke-linejoin:round;stroke-miterlimit:4;stroke-dasharray:none;stroke-opacity:1"
       d="m -59.909222,202.11491 c -12.88899,-0.14224 -38.022292,-0.38967 -55.851788,-0.54986 l -32.41726,-0.29125 0.1003,-46.53645 0.10029,-46.53646 0.84986,-2.25306 c 1.79461,-4.75775 5.53458,-9.022101 9.94551,-11.339983 4.976,-2.614814 2.28439,-2.49904 55.445616,-2.384857 l 47.907829,0.102902 2.600192,1.010253 c 6.649674,2.583604 11.383168,7.829475 13.09136,14.508435 0.728322,2.84771 0.750411,4.28417 0.750411,48.79773 v 45.86364 l -9.543897,-0.0662 c -5.249146,-0.0364 -20.089437,-0.18259 -32.978423,-0.32483 z"
       id="path5767"
       inkscape:connector-curvature="0"
       sodipodi:nodetypes="csccccsscssscccc" />
    <text
       xml:space="preserve"
       style="font-style:normal;font-weight:normal;font-size:15.19156551px;line-height:1.25;font-family:sans-serif;letter-spacing:0px;word-spacing:0px;fill:#ffffff;fill-opacity:1;stroke:none;stroke-width:0.37978911"
       x="-109.27133"
       y="231.00304"
       id="text5737"
       transform="scale(1.0383213,0.96309302)"><tspan
         sodipodi:role="line"
         id="tspan5735"
         x="-109.27133"
         y="231.00304"
         style="fill:#ffffff;fill-opacity:1;stroke-width:0.37978911">Auction</tspan></text>
    <g
       id="g5733"
       transform="matrix(0.26054796,0,0,0.2594426,-136.51171,104.30037)"
       style="stroke:#6b069e;stroke-opacity:1;stroke-width:0;stroke-miterlimit:4;stroke-dasharray:none">
      <g
         transform="translate(146.82554,7.2399227)"
         id="layer1-1"
         inkscape:label="Background"
         style="stroke:#6b069e;stroke-opacity:1;stroke-width:0;stroke-miterlimit:4;stroke-dasharray:none">
        <rect
           y="-7.0070014"
           x="-146.59262"
           height="342.49841"
           width="411.86978"
           id="rect4491"
           style="fill:#6b069e;fill-opacity:1;stroke:#6b069e;stroke-width:0;stroke-linecap:round;stroke-linejoin:round;stroke-miterlimit:4;stroke-dasharray:none;stroke-opacity:1" />
      </g>
      <g
         inkscape:label="Scene"
         id="layer2"
         style="stroke:#6b069e;stroke-opacity:1;stroke-width:0;stroke-miterlimit:4;stroke-dasharray:none">
        <g
           style="stroke:#6b069e;stroke-width:0;stroke-miterlimit:4;stroke-dasharray:none;stroke-opacity:1"
           transform="matrix(0.8640942,0,0,1.0001914,-7.7052211,12.601846)"
           id="avatar">
          <ellipse
             style="fill:#ffffff;fill-opacity:1;stroke:#6b069e;stroke-width:0;stroke-linecap:round;stroke-linejoin:round;stroke-miterlimit:4;stroke-dasharray:none;stroke-opacity:1"
             id="path4494"
             cx="90.132797"
             cy="228.81546"
             rx="30.304945"
             ry="28.618576" />
          <path
             style="fill:#ffffff;fill-opacity:1;stroke:#6b069e;stroke-width:0;stroke-linecap:butt;stroke-linejoin:miter;stroke-miterlimit:4;stroke-dasharray:none;stroke-opacity:1"
             d="m 58.043343,244.6628 c 0,0 11.487713,12.93397 19.361978,15.34508 10.030905,3.07148 21.812635,1.91413 31.381239,-2.38643 6.46422,-2.9053 15.28023,-14.78368 15.28023,-14.78368 30.28729,16.16741 30.55642,38.07087 30.63641,52.28852 -31.79299,16.62116 -66.163587,29.00767 -125.730643,0 -0.397525,-17.45233 8.33087,-36.0308 29.070786,-50.46349 z"
             id="path4498"
             inkscape:connector-curvature="0"
             sodipodi:nodetypes="caacccc" />
        </g>
        <path
           inkscape:connector-curvature="0"
           id="callout"
           d="m 115.13716,153.99006 a 39.03493,21.540013 0 0 0 -39.034925,21.54003 39.03493,21.540013 0 0 0 9.807928,14.23766 l -14.523521,21.66232 27.530859,-16.33178 a 39.03493,21.540013 0 0 0 16.219659,1.97183 39.03493,21.540013 0 0 0 39.03492,-21.54003 39.03493,21.540013 0 0 0 -39.03492,-21.54003 z"
           style="fill:#ffffff;fill-opacity:1;stroke:#6b069e;stroke-width:0;stroke-linecap:round;stroke-linejoin:round;stroke-miterlimit:4;stroke-dasharray:none;stroke-opacity:1" />
        <text
           transform="scale(0.95225506,1.0501388)"
           id="text4538"
           y="180.21465"
           x="105.06956"
           style="font-style:normal;font-weight:normal;font-size:37.2949028px;line-height:1.25;font-family:sans-serif;letter-spacing:0px;word-spacing:0px;fill:#e59100;fill-opacity:1;stroke:#6b069e;stroke-width:0;stroke-opacity:1;stroke-miterlimit:4;stroke-dasharray:none"
           xml:space="preserve"><tspan
             style="fill:#e59100;fill-opacity:1;stroke-width:0;stroke:#6b069e;stroke-opacity:1;stroke-miterlimit:4;stroke-dasharray:none"
             y="180.21465"
             x="105.06956"
             id="tspan4536"
             sodipodi:role="line">$</tspan></text>
        <g
           id="g4544"
           transform="matrix(0.8640942,0,0,1.0001914,255.28799,10.46369)"
           style="stroke:#6b069e;stroke-width:0;stroke-miterlimit:4;stroke-dasharray:none;stroke-opacity:1">
          <ellipse
             ry="28.618576"
             rx="30.304945"
             cy="228.81546"
             cx="90.132797"
             id="ellipse4540"
             style="fill:#ffffff;fill-opacity:1;stroke:#6b069e;stroke-width:0;stroke-linecap:round;stroke-linejoin:round;stroke-miterlimit:4;stroke-dasharray:none;stroke-opacity:1" />
          <path
             sodipodi:nodetypes="caacccc"
             inkscape:connector-curvature="0"
             id="path4542"
             d="m 58.043343,244.6628 c 0,0 11.487713,12.93397 19.361978,15.34508 10.030905,3.07148 21.812635,1.91413 31.381239,-2.38643 6.46422,-2.9053 15.28023,-14.78368 15.28023,-14.78368 30.28729,16.16741 30.55642,38.07087 30.63641,52.28852 -31.79299,16.62116 -66.163587,29.00767 -125.730643,0 -0.397525,-17.45233 8.33087,-36.0308 29.070786,-50.46349 z"
             style="fill:#ffffff;fill-opacity:1;stroke:#6b069e;stroke-width:0;stroke-linecap:butt;stroke-linejoin:miter;stroke-miterlimit:4;stroke-dasharray:none;stroke-opacity:1" />
        </g>
        <path
           sodipodi:nodetypes="sccccccs"
           style="fill:#ffffff;fill-opacity:1;stroke:#6b069e;stroke-width:0;stroke-linecap:round;stroke-linejoin:round;stroke-miterlimit:4;stroke-dasharray:none;stroke-opacity:1"
           d="m 349.16814,136.92681 c -30.44539,0 -55.12625,12.14257 -55.12623,27.12119 0.0252,6.60608 4.95042,12.98051 13.85104,17.92674 l 23.33471,27.27516 -4.96539,-20.56345 c 7.18489,1.6264 14.99698,2.47314 22.90587,2.48274 30.44538,-10e-6 55.12622,-12.14258 55.1262,-27.12119 2e-5,-14.97861 -24.68082,-27.12118 -55.1262,-27.12119 z"
           id="path4551"
           inkscape:connector-curvature="0" />
        <text
           xml:space="preserve"
           style="font-style:normal;font-weight:normal;font-size:39.10896301px;line-height:1.25;font-family:sans-serif;letter-spacing:0px;word-spacing:0px;fill:#e59100;fill-opacity:1;stroke:#6b069e;stroke-width:0;stroke-opacity:1;stroke-miterlimit:4;stroke-dasharray:none"
           x="319.91928"
           y="176.59131"
           id="text4555"
           transform="scale(1.0084967,0.99157485)"><tspan
             sodipodi:role="line"
             id="tspan4553"
             x="319.91928"
             y="176.59131"
             style="fill:#e59100;fill-opacity:1;stroke-width:0;stroke:#6b069e;stroke-opacity:1;stroke-miterlimit:4;stroke-dasharray:none">$$</tspan></text>
        <g
           style="stroke:#6b069e;stroke-width:0;stroke-miterlimit:4;stroke-dasharray:none;stroke-opacity:1"
           transform="matrix(0.8640942,0,0,1.0001914,129.13677,-23.746809)"
           id="g4561">
          <ellipse
             style="fill:#ffffff;fill-opacity:1;stroke:#6b069e;stroke-width:0;stroke-linecap:round;stroke-linejoin:round;stroke-miterlimit:4;stroke-dasharray:none;stroke-opacity:1"
             id="ellipse4557"
             cx="90.132797"
             cy="228.81546"
             rx="30.304945"
             ry="28.618576" />
          <path
             style="fill:#ffffff;fill-opacity:1;stroke:#6b069e;stroke-width:0;stroke-linecap:butt;stroke-linejoin:miter;stroke-miterlimit:4;stroke-dasharray:none;stroke-opacity:1"
             d="m 58.043343,244.6628 c 0,0 11.487713,12.93397 19.361978,15.34508 10.030905,3.07148 21.812635,1.91413 31.381239,-2.38643 6.46422,-2.9053 15.28023,-14.78368 15.28023,-14.78368 30.28729,16.16741 30.55642,38.07087 30.63641,52.28852 -31.79299,16.62116 -66.163587,29.00767 -125.730643,0 -0.397525,-17.45233 8.33087,-36.0308 29.070786,-50.46349 z"
             id="path4559"
             inkscape:connector-curvature="0"
             sodipodi:nodetypes="caacccc" />
        </g>
        <path
           sodipodi:nodetypes="scccccs"
           inkscape:connector-curvature="0"
           id="path4563"
           d="M 214.38903,17.777764 C 121.86123,17.77779 46.852745,53.756282 46.852907,71.762479 46.952387,87.741648 106.54771,120.5953 187.60308,123.15009 l 28.76284,46.81047 31.80987,-49.10269 C 327.00481,117.90686 381.86154,87.38411 381.92543,71.762479 381.92559,53.756261 306.91694,17.77776 214.38903,17.777764 Z"
           style="fill:#ffffff;fill-opacity:1;stroke:#6b069e;stroke-width:0;stroke-linecap:round;stroke-linejoin:round;stroke-miterlimit:4;stroke-dasharray:none;stroke-opacity:1" />
        <text
           xml:space="preserve"
           style="font-style:normal;font-weight:normal;font-size:56.68142319px;line-height:1.25;font-family:sans-serif;letter-spacing:0px;word-spacing:0px;fill:#e59100;fill-opacity:1;stroke:#6b069e;stroke-width:0;stroke-opacity:1;stroke-miterlimit:4;stroke-dasharray:none"
           x="162.11099"
           y="78.368134"
           id="text4570"
           transform="scale(0.99006343,1.0100363)"><tspan
             sodipodi:role="line"
             id="tspan4568"
             x="162.11099"
             y="78.368134"
             style="fill:#e59100;fill-opacity:1;stroke-width:0;stroke:#6b069e;stroke-opacity:1;stroke-miterlimit:4;stroke-dasharray:none">$$$</tspan></text>
      </g>
    </g>
    <g
       id="g5778">
      <ellipse
         ry="7.9375"
         rx="8.1264887"
         cy="218.00296"
         cx="-37.230648"
         id="path5769"
         style="fill:#1586ff;fill-opacity:1;stroke:#6b069e;stroke-width:0;stroke-linecap:round;stroke-linejoin:round;stroke-miterlimit:4;stroke-dasharray:none;stroke-opacity:1" />
      <text
         id="text5773"
         y="222.16071"
         x="-39.6875"
         style="font-style:normal;font-weight:normal;font-size:10.58333302px;line-height:1.25;font-family:sans-serif;letter-spacing:0px;word-spacing:0px;fill:#e8e8e8;fill-opacity:1;stroke:none;stroke-width:0.26458332;"
         xml:space="preserve"><tspan
           style="stroke-width:0.26458332;fill:#e8e8e8;fill-opacity:1;"
           y="222.16071"
           x="-39.6875"
           id="tspan5771"
           sodipodi:role="line">?</tspan></text>
    </g>
  </g>
</svg>
