<?xml version="1.0" encoding="UTF-8" standalone="no"?>
<!-- Created with Inkscape (http://www.inkscape.org/) -->

<svg
   xmlns:dc="http://purl.org/dc/elements/1.1/"
   xmlns:cc="http://creativecommons.org/ns#"
   xmlns:rdf="http://www.w3.org/1999/02/22-rdf-syntax-ns#"
   xmlns:svg="http://www.w3.org/2000/svg"
   xmlns="http://www.w3.org/2000/svg"
   xmlns:sodipodi="http://sodipodi.sourceforge.net/DTD/sodipodi-0.dtd"
   xmlns:inkscape="http://www.inkscape.org/namespaces/inkscape"
   width="210mm"
   height="297mm"
   viewBox="0 0 210 297"
   version="1.1"
   id="svg8"
   inkscape:version="0.92.1 r15371"
   sodipodi:docname="map-pin.svg">
  <defs
     id="defs2" />
  <sodipodi:namedview
     id="base"
     pagecolor="#ffffff"
     bordercolor="#666666"
     borderopacity="1.0"
     inkscape:pageopacity="0.0"
     inkscape:pageshadow="2"
     inkscape:zoom="0.7"
     inkscape:cx="-667.32271"
     inkscape:cy="724.18381"
     inkscape:document-units="mm"
     inkscape:current-layer="layer1"
     showgrid="false"
     showguides="true"
     inkscape:guide-bbox="true"
     inkscape:snap-global="false"
     inkscape:window-width="1366"
     inkscape:window-height="705"
     inkscape:window-x="-8"
     inkscape:window-y="-8"
     inkscape:window-maximized="1">
    <sodipodi:guide
       position="101.29762,179.91667"
       orientation="0,1"
       id="guide4489"
       inkscape:locked="false" />
  </sodipodi:namedview>
  <metadata
     id="metadata5">
    <rdf:RDF>
      <cc:Work
         rdf:about="">
        <dc:format>image/svg+xml</dc:format>
        <dc:type
           rdf:resource="http://purl.org/dc/dcmitype/StillImage" />
        <dc:title />
      </cc:Work>
    </rdf:RDF>
  </metadata>
  <g
     inkscape:label="Layer 1"
     inkscape:groupmode="layer"
     id="layer1">
    <path
       style="fill:#1155ff;fill-opacity:1;stroke:#000000;stroke-width:0.1643084px;stroke-linecap:butt;stroke-linejoin:miter;stroke-opacity:1"
       d="m 90.443254,51.372389 c -19.280784,0.043 -37.898121,10.528173 -31.81806,31.505834 0.359083,7.096033 11.064258,27.248267 14.752425,33.343257 l 19.670459,39.07955 18.440962,-38.36267 c 4.91755,-11.47292 15.51405,-27.83662 14.75242,-34.418701 3.4267,-20.79112 -16.51742,-31.190268 -35.798206,-31.14727 z m 1.892586,12.199506 a 20.836658,12.889904 0 0 1 20.83694,12.88992 20.836658,12.889904 0 0 1 -20.83694,12.88992 20.836658,12.889904 0 0 1 -20.836518,-12.88992 20.836658,12.889904 0 0 1 20.836518,-12.88992 z"
       id="path4485"
       inkscape:export-xdpi="68.1614"
       inkscape:export-ydpi="68.1614"
       inkscape:connector-curvature="0" />
    <path
       style="fill:#084bf2;fill-opacity:1;stroke:#000000;stroke-width:0.99999994px;stroke-linecap:butt;stroke-linejoin:miter;stroke-opacity:1"
       d="m -796.30859,35.443359 c -84.47401,0.393199 -168.6892,65.495531 -166.54883,204.218751 2.12326,137.61415 88.16505,180.85527 88.16505,180.85527 l 66.85597,132.04365 c 24.26682,23.59267 33.75017,5.96541 45.86717,-7.0128 l 61.23339,-123.6027 c 10.18856,-41.58849 77.46907,-63.06906 72.16357,-190.85373 -5.29989,-127.64956 -80.58061,-196.054121 -167.73632,-195.648441 z m 2.32812,63.785157 c 63.62399,-2.79e-4 115.20149,49.081554 115.20117,109.626954 3.1e-4,60.5454 -55.6178,162.15516 -119.24178,162.15488 -63.62322,-7.4e-4 -111.15892,-101.6102 -111.15861,-162.15488 -3.2e-4,-60.54468 51.57599,-109.626208 115.19922,-109.626954 z"
       id="path4492"
       inkscape:export-xdpi="61.651402"
       inkscape:export-ydpi="61.651402"
       inkscape:connector-curvature="0"
       sodipodi:nodetypes="ssccccssccccc"
       transform="scale(0.26458333)" />
  </g>
</svg>
