<?xml version="1.0" encoding="UTF-8" standalone="no"?>
<!-- Created with Inkscape (http://www.inkscape.org/) -->

<svg
   xmlns:dc="http://purl.org/dc/elements/1.1/"
   xmlns:cc="http://creativecommons.org/ns#"
   xmlns:rdf="http://www.w3.org/1999/02/22-rdf-syntax-ns#"
   xmlns:svg="http://www.w3.org/2000/svg"
   xmlns="http://www.w3.org/2000/svg"
   xmlns:sodipodi="http://sodipodi.sourceforge.net/DTD/sodipodi-0.dtd"
   xmlns:inkscape="http://www.inkscape.org/namespaces/inkscape"
   width="210mm"
   height="297mm"
   viewBox="0 0 210 297"
   version="1.1"
   id="svg4496"
   inkscape:version="0.92.1 r15371"
   sodipodi:docname="pencil.svg"
   inkscape:export-filename="C:\Users\habit\git\Relica\Relica\src\main\resources\images\black-pencil.png"
   inkscape:export-xdpi="29.9"
   inkscape:export-ydpi="29.9">
  <defs
     id="defs4490" />
  <sodipodi:namedview
     id="base"
     pagecolor="#ffffff"
     bordercolor="#666666"
     borderopacity="1.0"
     inkscape:pageopacity="0.0"
     inkscape:pageshadow="2"
     inkscape:zoom="0.24748737"
     inkscape:cx="1867.735"
     inkscape:cy="926.68696"
     inkscape:document-units="mm"
     inkscape:current-layer="layer1"
     showgrid="false"
     inkscape:snap-global="false"
     showguides="true"
     inkscape:guide-bbox="true"
     inkscape:window-width="1366"
     inkscape:window-height="705"
     inkscape:window-x="-8"
     inkscape:window-y="-8"
     inkscape:window-maximized="1">
    <sodipodi:guide
       position="-53.453904,204.19392"
       orientation="1,0"
       id="guide5107"
       inkscape:locked="false" />
    <sodipodi:guide
       position="-10.690781,107.97689"
       orientation="1,0"
       id="guide5109"
       inkscape:locked="false" />
    <sodipodi:guide
       position="-10.690781,6.4144702"
       orientation="0,1"
       id="guide5119"
       inkscape:locked="false" />
  </sodipodi:namedview>
  <metadata
     id="metadata4493">
    <rdf:RDF>
      <cc:Work
         rdf:about="">
        <dc:format>image/svg+xml</dc:format>
        <dc:type
           rdf:resource="http://purl.org/dc/dcmitype/StillImage" />
        <dc:title></dc:title>
      </cc:Work>
    </rdf:RDF>
  </metadata>
  <g
     inkscape:label="Layer 1"
     inkscape:groupmode="layer"
     id="layer1">
    <path
       style="fill:#000000;fill-opacity:1;stroke:none;stroke-width:2.538903;stroke-miterlimit:4;stroke-dasharray:none;stroke-opacity:1"
       d=""
       id="path5071"
       inkscape:connector-curvature="0"
       transform="scale(0.26458333)" />
    <path
       style="fill:#000000;fill-opacity:1;stroke:#000000;stroke-width:1.79527557;stroke-miterlimit:4;stroke-dasharray:none;stroke-opacity:1"
       d=""
       id="path5103"
       inkscape:connector-curvature="0"
       transform="scale(0.26458333)" />
    <g
       id="g5240">
      <g
         id="g5217">
        <g
           id="g5133"
           transform="rotate(44.404882,389.12484,549.21273)">
          <path
             sodipodi:nodetypes="ccccccccc"
             inkscape:connector-curvature="0"
             id="path5113"
             d="m -53.453905,27.592316 10e-7,262.993214 21.64883,61.20472 21.114293,-61.20472 V 26.523238 Z m 14.432554,303.083644 c 4.140977,-13.06766 8.60867,-19.85327 14.165285,-1.06908 l 0.534539,2.13816"
             style="fill:none;stroke:#000000;stroke-width:1.56500006;stroke-linecap:butt;stroke-linejoin:miter;stroke-miterlimit:4;stroke-dasharray:none;stroke-opacity:1" />
          <path
             style="color:#000000;font-style:normal;font-variant:normal;font-weight:normal;font-stretch:normal;font-size:medium;line-height:normal;font-family:sans-serif;font-variant-ligatures:normal;font-variant-position:normal;font-variant-caps:normal;font-variant-numeric:normal;font-variant-alternates:normal;font-feature-settings:normal;text-indent:0;text-align:start;text-decoration:none;text-decoration-line:none;text-decoration-style:solid;text-decoration-color:#000000;letter-spacing:normal;word-spacing:normal;text-transform:none;writing-mode:lr-tb;direction:ltr;text-orientation:mixed;dominant-baseline:auto;baseline-shift:baseline;text-anchor:start;white-space:normal;shape-padding:0;clip-rule:nonzero;display:inline;overflow:visible;visibility:visible;opacity:1;isolation:auto;mix-blend-mode:normal;color-interpolation:sRGB;color-interpolation-filters:linearRGB;solid-color:#000000;solid-opacity:1;vector-effect:none;fill:#000000;fill-opacity:1;fill-rule:nonzero;stroke:#000000;stroke-width:1;stroke-linecap:butt;stroke-linejoin:miter;stroke-miterlimit:4;stroke-dasharray:none;stroke-dashoffset:0;stroke-opacity:1;color-rendering:auto;image-rendering:auto;shape-rendering:auto;text-rendering:auto;enable-background:accumulate"
             d="m -10.748047,290.4668 c 0,0 -2.146537,1.03183 -4.708984,2.06445 -2.562448,1.03262 -5.557602,2.06055 -7.169922,2.06055 -1.665685,0 -3.312302,-1.27689 -5.083985,-2.33594 -0.885841,-0.52952 -1.803483,-1.00325 -2.78125,-1.2168 -0.977766,-0.21354 -2.016623,-0.16325 -3.115234,0.34571 -3.62153,1.67774 -5.802963,3.62197 -10.007812,3.58789 -2.008558,-0.0163 -4.459753,-1.13312 -6.396485,-2.25391 -1.936732,-1.12079 -3.361328,-2.23828 -3.361328,-2.23828 l -0.162109,0.20898 c 0,0 1.438602,1.12705 3.392578,2.25782 1.953976,1.13076 4.421619,2.27398 6.52539,2.29101 4.287219,0.0348 6.533896,-1.95144 10.121094,-3.61328 1.047377,-0.48522 2.015391,-0.52969 2.947266,-0.32617 0.931875,0.20352 1.82711,0.65994 2.703125,1.18359 1.75203,1.0473 3.420494,2.37305 5.21875,2.37305 1.721777,0 4.695922,-1.0418 7.267578,-2.07813 2.571656,-1.03632 4.726563,-2.07226 4.726563,-2.07226 z"
             id="path5115"
             inkscape:connector-curvature="0" />
          <path
             sodipodi:nodetypes="cczcc"
             inkscape:connector-curvature="0"
             id="path5117"
             d="m -53.453905,27.592316 3e-6,-42.763124 c 0,0 -1.069082,-23.786988 20.84702,-23.519718 21.916101,0.267269 21.916101,23.519718 21.916101,23.519718 v 41.694046"
             style="fill:none;stroke:#000000;stroke-width:1.56500006;stroke-linecap:butt;stroke-linejoin:miter;stroke-miterlimit:4;stroke-dasharray:none;stroke-opacity:1" />
          <rect
             y="26.829546"
             x="-27.305819"
             height="270.70023"
             width="10.42395"
             id="rect5121"
             style="fill:#2b2b2b;fill-opacity:1;stroke:none;stroke-width:0.5854879;stroke-miterlimit:4;stroke-dasharray:none;stroke-opacity:1"
             transform="matrix(0.99999085,-0.0042782,-0.00427896,0.99999085,0,0)" />
          <rect
             y="25.044535"
             x="-48.789047"
             height="273.81549"
             width="9.9665804"
             id="rect5123"
             style="fill:#2b2b2b;fill-opacity:1;stroke:none;stroke-width:0.5956592;stroke-miterlimit:4;stroke-dasharray:none;stroke-opacity:1"
             transform="matrix(0.9999995,9.9745542e-4,9.9741244e-4,0.9999995,0,0)" />
          <path
             transform="scale(0.26458333)"
             inkscape:connector-curvature="0"
             id="path5125"
             d="m -120.87393,1324.4828 c -0.41432,-1.0566 -6.44225,-17.9788 -13.3954,-37.6048 l -12.64209,-35.6838 3.72168,-10.7833 c 9.10546,-26.3822 17.70161,-39.0346 25.23565,-37.1437 6.11408,1.5345 14.45653,15.824 20.876994,35.7594 l 3.352373,10.4091 -4.862206,14.3397 c -16.936821,49.9503 -21.563401,62.5526 -22.287001,60.7074 z"
             style="fill:#151515;fill-opacity:1;stroke:none;stroke-width:2.538903;stroke-miterlimit:4;stroke-dasharray:none;stroke-opacity:1" />
        </g>
        <path
           style="fill:#ffffff;fill-opacity:1;stroke:#000000;stroke-width:0;stroke-miterlimit:4;stroke-dasharray:none;stroke-opacity:1"
           d="m 249.08626,101.24304 c 0.0858,-0.19089 0.66058,-1.456981 1.27732,-2.813521 2.42185,-5.326974 2.49997,-8.557067 0.23477,-9.708146 -1.85632,-0.943296 -5.30238,-0.33553 -10.02503,1.768068 -1.28436,0.572094 -2.39014,0.98722 -2.45726,0.9225 -0.0944,-0.09095 14.40042,-30.481634 15.60733,-32.72339 0.22239,-0.413061 0.4021,-0.103222 1.02726,1.771075 0.95261,2.855969 1.78534,4.230104 3.50125,5.77756 1.72204,1.552985 3.24259,2.286047 7.21286,3.477342 4.46307,1.339155 4.60078,1.498024 6.27947,7.243763 0.39287,1.344643 0.85252,2.238773 1.51361,2.944275 1.0304,1.099612 3.90575,2.647089 7.36725,3.96496 1.20468,0.458644 2.27893,0.916391 2.38722,1.017216 0.10829,0.100822 -7.51587,3.900784 -16.94256,8.444352 -9.42672,4.543568 -17.06929,8.104846 -16.98349,7.913946 z"
           id="path5207"
           inkscape:connector-curvature="0" />
      </g>
      <path
         transform="scale(0.26458333)"
         inkscape:connector-curvature="0"
         id="path5219"
         d="m 1060.6782,311.10298 -10.3591,-4.36964 351.602,-356.001355 351.602,-356.001345 6.6087,5.47841 c 3.6349,3.01313 6.6744,5.97901 6.7547,6.59084 0.2116,1.61368 -692.9284,709.05834 -694.5157,708.84877 -0.7335,-0.0968 -5.9951,-2.14239 -11.6926,-4.54568 z"
         style="fill:#ffffff;fill-opacity:1;stroke:#000000;stroke-width:0;stroke-miterlimit:4;stroke-dasharray:none;stroke-opacity:1" />
      <path
         transform="scale(0.26458333)"
         inkscape:connector-curvature="0"
         id="path5221"
         d="m 1020.2131,265.61857 c -2.4965,-3.17191 -8.3878,-6.79073 -13.7962,-8.47451 -5.1915,-1.61626 -9.59474,-3.51093 -9.78501,-4.2104 -0.19027,-0.69945 150.11631,-155.130172 334.01451,-343.179382 183.8983,-188.049208 340.7245,-348.673508 348.5027,-356.942868 l 14.1421,-15.03521 15.1523,14.01296 15.1523,14.01297 -50.4661,51.2574 c -212.4049,215.73541 -646.3693,654.29714 -647.3488,654.20669 -0.6659,-0.0614 -3.1714,-2.60292 -5.5678,-5.64765 z"
         style="fill:#ffffff;fill-opacity:1;stroke:#000000;stroke-width:0;stroke-miterlimit:4;stroke-dasharray:none;stroke-opacity:1" />
      <path
         transform="scale(0.26458333)"
         inkscape:connector-curvature="0"
         id="path5223"
         d="m 966.37992,221.37545 c -0.46753,-0.83338 -1.41665,-3.89186 -2.10914,-6.79661 -1.15344,-4.83825 24.7731,-31.87478 309.00922,-322.23866 170.6476,-174.32651 326.5399,-333.30757 346.4273,-353.29126 l 36.1591,-36.33397 4.5111,4.51119 4.5112,4.51118 -42.5315,42.93447 c -23.3923,23.61395 -180.0079,183.62346 -348.0346,355.576675 C 1106.2958,82.201682 968.46178,222.89068 968.02469,222.89068 c -0.43709,0 -1.17724,-0.68186 -1.64477,-1.51523 z"
         style="fill:#ffffff;fill-opacity:1;stroke:#000000;stroke-width:0;stroke-miterlimit:4;stroke-dasharray:none;stroke-opacity:1" />
      <path
         transform="scale(0.26458333)"
         inkscape:connector-curvature="0"
         id="path5225"
         d="m 1737.2793,-432.03121 c -22.2169,-20.72458 -35.9069,-34.96086 -35.9069,-37.33979 0,-2.11464 -5.4548,-9.37232 -12.1218,-16.12818 -9.2496,-9.37284 -13.1318,-12.03221 -16.384,-11.22341 -2.6975,0.67084 -5.5749,-0.39063 -7.8381,-2.89147 -3.4835,-3.84925 -2.0325,-5.53406 56.1125,-65.1537 62.9281,-64.52409 72.9171,-72.78809 96.2537,-79.63215 35.8051,-10.50074 76.8413,16.25701 88.2751,57.55991 4.3839,15.83612 2.191,32.23777 -6.8684,51.37266 -8.1625,17.24032 -11.0201,20.5132 -72.0046,82.46772 l -53.6105,54.46337 z"
         style="fill:#ffffff;fill-opacity:1;stroke:#000000;stroke-width:0;stroke-miterlimit:4;stroke-dasharray:none;stroke-opacity:1" />
    </g>
  </g>
</svg>
